<mxfile host="app.diagrams.net" agent="Mozilla/5.0 (Windows NT 10.0; Win64; x64) AppleWebKit/537.36 (KHTML, like Gecko) Chrome/137.0.0.0 Safari/537.36" version="28.0.3">
  <diagram id="C5RBs43oDa-KdzZeNtuy" name="Page-1">
    <mxGraphModel dx="2574" dy="1002" grid="1" gridSize="10" guides="1" tooltips="1" connect="1" arrows="1" fold="1" page="1" pageScale="1" pageWidth="827" pageHeight="1169" math="0" shadow="0">
      <root>
        <mxCell id="WIyWlLk6GJQsqaUBKTNV-0" />
        <mxCell id="WIyWlLk6GJQsqaUBKTNV-1" parent="WIyWlLk6GJQsqaUBKTNV-0" />
        <mxCell id="h-CkW-_AxQ22GPOhN1ok-21" value="" style="edgeStyle=orthogonalEdgeStyle;rounded=0;orthogonalLoop=1;jettySize=auto;html=1;" parent="WIyWlLk6GJQsqaUBKTNV-1" source="h-CkW-_AxQ22GPOhN1ok-0" edge="1">
          <mxGeometry relative="1" as="geometry">
            <mxPoint x="242" y="40" as="targetPoint" />
          </mxGeometry>
        </mxCell>
        <mxCell id="h-CkW-_AxQ22GPOhN1ok-0" value="Swagger ui&lt;div&gt;or&lt;/div&gt;&lt;div&gt;postman&lt;/div&gt;" style="rounded=1;whiteSpace=wrap;html=1;" parent="WIyWlLk6GJQsqaUBKTNV-1" vertex="1">
          <mxGeometry x="42" y="10" width="120" height="60" as="geometry" />
        </mxCell>
        <mxCell id="h-CkW-_AxQ22GPOhN1ok-23" value="" style="edgeStyle=orthogonalEdgeStyle;rounded=0;orthogonalLoop=1;jettySize=auto;html=1;" parent="WIyWlLk6GJQsqaUBKTNV-1" source="h-CkW-_AxQ22GPOhN1ok-2" edge="1">
          <mxGeometry relative="1" as="geometry">
            <mxPoint x="440" y="40" as="targetPoint" />
          </mxGeometry>
        </mxCell>
        <mxCell id="h-CkW-_AxQ22GPOhN1ok-2" value="Login Request&lt;div&gt;(username and password)&lt;/div&gt;" style="whiteSpace=wrap;html=1;rounded=1;" parent="WIyWlLk6GJQsqaUBKTNV-1" vertex="1">
          <mxGeometry x="240" y="10" width="120" height="60" as="geometry" />
        </mxCell>
        <mxCell id="h-CkW-_AxQ22GPOhN1ok-25" value="" style="edgeStyle=orthogonalEdgeStyle;rounded=0;orthogonalLoop=1;jettySize=auto;html=1;" parent="WIyWlLk6GJQsqaUBKTNV-1" source="h-CkW-_AxQ22GPOhN1ok-8" edge="1">
          <mxGeometry relative="1" as="geometry">
            <mxPoint x="500" y="149.9999999999999" as="targetPoint" />
          </mxGeometry>
        </mxCell>
        <mxCell id="h-CkW-_AxQ22GPOhN1ok-8" value="load users from .env&lt;div&gt;(fake_user_db)&lt;/div&gt;" style="whiteSpace=wrap;html=1;rounded=1;" parent="WIyWlLk6GJQsqaUBKTNV-1" vertex="1">
          <mxGeometry x="440" y="10" width="120" height="60" as="geometry" />
        </mxCell>
        <mxCell id="h-CkW-_AxQ22GPOhN1ok-16" value="" style="edgeStyle=orthogonalEdgeStyle;rounded=0;orthogonalLoop=1;jettySize=auto;html=1;" parent="WIyWlLk6GJQsqaUBKTNV-1" source="h-CkW-_AxQ22GPOhN1ok-10" target="h-CkW-_AxQ22GPOhN1ok-15" edge="1">
          <mxGeometry relative="1" as="geometry" />
        </mxCell>
        <mxCell id="h-CkW-_AxQ22GPOhN1ok-10" value="Authentication" style="rhombus;whiteSpace=wrap;html=1;rounded=1;" parent="WIyWlLk6GJQsqaUBKTNV-1" vertex="1">
          <mxGeometry x="445" y="152" width="110" height="100" as="geometry" />
        </mxCell>
        <mxCell id="h-CkW-_AxQ22GPOhN1ok-12" value="" style="endArrow=classic;html=1;rounded=0;exitX=1;exitY=0.5;exitDx=0;exitDy=0;" parent="WIyWlLk6GJQsqaUBKTNV-1" source="h-CkW-_AxQ22GPOhN1ok-10" edge="1">
          <mxGeometry width="50" height="50" relative="1" as="geometry">
            <mxPoint x="520" y="132" as="sourcePoint" />
            <mxPoint x="740" y="262" as="targetPoint" />
            <Array as="points">
              <mxPoint x="740" y="202" />
            </Array>
          </mxGeometry>
        </mxCell>
        <mxCell id="h-CkW-_AxQ22GPOhN1ok-13" value="Return 401&lt;div&gt;Unauthorized&lt;/div&gt;&lt;div&gt;&lt;br&gt;&lt;/div&gt;" style="rounded=1;whiteSpace=wrap;html=1;" parent="WIyWlLk6GJQsqaUBKTNV-1" vertex="1">
          <mxGeometry x="680" y="262" width="120" height="60" as="geometry" />
        </mxCell>
        <mxCell id="h-CkW-_AxQ22GPOhN1ok-14" value="fail" style="text;html=1;align=center;verticalAlign=middle;resizable=0;points=[];autosize=1;strokeColor=none;fillColor=none;" parent="WIyWlLk6GJQsqaUBKTNV-1" vertex="1">
          <mxGeometry x="650" y="170" width="40" height="30" as="geometry" />
        </mxCell>
        <mxCell id="h-CkW-_AxQ22GPOhN1ok-27" value="" style="edgeStyle=orthogonalEdgeStyle;rounded=0;orthogonalLoop=1;jettySize=auto;html=1;" parent="WIyWlLk6GJQsqaUBKTNV-1" source="h-CkW-_AxQ22GPOhN1ok-15" edge="1">
          <mxGeometry relative="1" as="geometry">
            <mxPoint x="360" y="382" as="targetPoint" />
          </mxGeometry>
        </mxCell>
        <mxCell id="h-CkW-_AxQ22GPOhN1ok-15" value="generate JWT&amp;nbsp;" style="whiteSpace=wrap;html=1;rounded=1;" parent="WIyWlLk6GJQsqaUBKTNV-1" vertex="1">
          <mxGeometry x="440" y="352" width="120" height="60" as="geometry" />
        </mxCell>
        <mxCell id="h-CkW-_AxQ22GPOhN1ok-17" value="success" style="text;html=1;align=center;verticalAlign=middle;resizable=0;points=[];autosize=1;strokeColor=none;fillColor=none;" parent="WIyWlLk6GJQsqaUBKTNV-1" vertex="1">
          <mxGeometry x="488" y="290" width="70" height="30" as="geometry" />
        </mxCell>
        <mxCell id="h-CkW-_AxQ22GPOhN1ok-29" value="" style="edgeStyle=orthogonalEdgeStyle;rounded=0;orthogonalLoop=1;jettySize=auto;html=1;" parent="WIyWlLk6GJQsqaUBKTNV-1" edge="1">
          <mxGeometry relative="1" as="geometry">
            <mxPoint x="338.04761904761904" y="420" as="sourcePoint" />
            <mxPoint x="338" y="520" as="targetPoint" />
          </mxGeometry>
        </mxCell>
        <mxCell id="h-CkW-_AxQ22GPOhN1ok-18" value="Return JWT token to&lt;div&gt;user client&lt;/div&gt;" style="whiteSpace=wrap;html=1;rounded=1;" parent="WIyWlLk6GJQsqaUBKTNV-1" vertex="1">
          <mxGeometry x="250" y="360" width="120" height="60" as="geometry" />
        </mxCell>
        <mxCell id="h-CkW-_AxQ22GPOhN1ok-32" value="" style="endArrow=classic;html=1;rounded=0;exitX=0;exitY=1;exitDx=0;exitDy=0;" parent="WIyWlLk6GJQsqaUBKTNV-1" source="h-CkW-_AxQ22GPOhN1ok-18" edge="1">
          <mxGeometry width="50" height="50" relative="1" as="geometry">
            <mxPoint x="180" y="430" as="sourcePoint" />
            <mxPoint x="180" y="520" as="targetPoint" />
            <Array as="points">
              <mxPoint x="180" y="420" />
            </Array>
          </mxGeometry>
        </mxCell>
        <mxCell id="h-CkW-_AxQ22GPOhN1ok-33" value="" style="endArrow=classic;html=1;rounded=0;exitX=1;exitY=1;exitDx=0;exitDy=0;" parent="WIyWlLk6GJQsqaUBKTNV-1" source="h-CkW-_AxQ22GPOhN1ok-18" edge="1">
          <mxGeometry width="50" height="50" relative="1" as="geometry">
            <mxPoint x="436" y="420" as="sourcePoint" />
            <mxPoint x="851" y="520" as="targetPoint" />
            <Array as="points">
              <mxPoint x="851" y="420" />
            </Array>
          </mxGeometry>
        </mxCell>
        <mxCell id="h-CkW-_AxQ22GPOhN1ok-36" value="" style="edgeStyle=orthogonalEdgeStyle;rounded=0;orthogonalLoop=1;jettySize=auto;html=1;" parent="WIyWlLk6GJQsqaUBKTNV-1" source="h-CkW-_AxQ22GPOhN1ok-34" target="h-CkW-_AxQ22GPOhN1ok-35" edge="1">
          <mxGeometry relative="1" as="geometry" />
        </mxCell>
        <mxCell id="h-CkW-_AxQ22GPOhN1ok-45" value="" style="edgeStyle=orthogonalEdgeStyle;rounded=0;orthogonalLoop=1;jettySize=auto;html=1;" parent="WIyWlLk6GJQsqaUBKTNV-1" source="h-CkW-_AxQ22GPOhN1ok-34" target="h-CkW-_AxQ22GPOhN1ok-44" edge="1">
          <mxGeometry relative="1" as="geometry" />
        </mxCell>
        <mxCell id="h-CkW-_AxQ22GPOhN1ok-34" value="POST&lt;div&gt;(create item)&lt;/div&gt;" style="rounded=1;whiteSpace=wrap;html=1;" parent="WIyWlLk6GJQsqaUBKTNV-1" vertex="1">
          <mxGeometry x="120" y="520" width="120" height="60" as="geometry" />
        </mxCell>
        <mxCell id="h-CkW-_AxQ22GPOhN1ok-38" value="" style="edgeStyle=orthogonalEdgeStyle;rounded=0;orthogonalLoop=1;jettySize=auto;html=1;" parent="WIyWlLk6GJQsqaUBKTNV-1" source="h-CkW-_AxQ22GPOhN1ok-35" target="h-CkW-_AxQ22GPOhN1ok-37" edge="1">
          <mxGeometry relative="1" as="geometry" />
        </mxCell>
        <mxCell id="h-CkW-_AxQ22GPOhN1ok-35" value="save item in {store}&lt;div&gt;with username&lt;/div&gt;" style="whiteSpace=wrap;html=1;rounded=1;" parent="WIyWlLk6GJQsqaUBKTNV-1" vertex="1">
          <mxGeometry x="120" y="660" width="120" height="60" as="geometry" />
        </mxCell>
        <mxCell id="h-CkW-_AxQ22GPOhN1ok-37" value="return 200&lt;div&gt;&amp;nbsp;success&lt;/div&gt;" style="whiteSpace=wrap;html=1;rounded=1;" parent="WIyWlLk6GJQsqaUBKTNV-1" vertex="1">
          <mxGeometry x="120" y="800" width="120" height="60" as="geometry" />
        </mxCell>
        <mxCell id="h-CkW-_AxQ22GPOhN1ok-41" value="" style="edgeStyle=orthogonalEdgeStyle;rounded=0;orthogonalLoop=1;jettySize=auto;html=1;" parent="WIyWlLk6GJQsqaUBKTNV-1" source="h-CkW-_AxQ22GPOhN1ok-39" target="h-CkW-_AxQ22GPOhN1ok-40" edge="1">
          <mxGeometry relative="1" as="geometry" />
        </mxCell>
        <mxCell id="-DJvV-PoS4uheA2PgcJM-0" value="if item exists" style="edgeLabel;html=1;align=center;verticalAlign=middle;resizable=0;points=[];" vertex="1" connectable="0" parent="h-CkW-_AxQ22GPOhN1ok-41">
          <mxGeometry x="-0.0271" y="1" relative="1" as="geometry">
            <mxPoint as="offset" />
          </mxGeometry>
        </mxCell>
        <mxCell id="-DJvV-PoS4uheA2PgcJM-4" value="" style="edgeStyle=orthogonalEdgeStyle;rounded=0;orthogonalLoop=1;jettySize=auto;html=1;" edge="1" parent="WIyWlLk6GJQsqaUBKTNV-1" source="h-CkW-_AxQ22GPOhN1ok-39" target="-DJvV-PoS4uheA2PgcJM-3">
          <mxGeometry relative="1" as="geometry" />
        </mxCell>
        <mxCell id="h-CkW-_AxQ22GPOhN1ok-39" value="GET&lt;br&gt;&lt;div&gt;(read item)&lt;/div&gt;" style="rounded=1;whiteSpace=wrap;html=1;" parent="WIyWlLk6GJQsqaUBKTNV-1" vertex="1">
          <mxGeometry x="280" y="520" width="120" height="60" as="geometry" />
        </mxCell>
        <mxCell id="-DJvV-PoS4uheA2PgcJM-2" value="" style="edgeStyle=orthogonalEdgeStyle;rounded=0;orthogonalLoop=1;jettySize=auto;html=1;" edge="1" parent="WIyWlLk6GJQsqaUBKTNV-1" source="h-CkW-_AxQ22GPOhN1ok-40" target="-DJvV-PoS4uheA2PgcJM-1">
          <mxGeometry relative="1" as="geometry" />
        </mxCell>
        <mxCell id="h-CkW-_AxQ22GPOhN1ok-40" value="Retrive item from&amp;nbsp;&lt;div&gt;{store}&lt;/div&gt;" style="whiteSpace=wrap;html=1;rounded=1;" parent="WIyWlLk6GJQsqaUBKTNV-1" vertex="1">
          <mxGeometry x="280" y="660" width="120" height="60" as="geometry" />
        </mxCell>
        <mxCell id="h-CkW-_AxQ22GPOhN1ok-43" value="if item not exist&lt;div&gt;&lt;br&gt;&lt;/div&gt;" style="text;html=1;align=center;verticalAlign=middle;resizable=0;points=[];autosize=1;strokeColor=none;fillColor=none;" parent="WIyWlLk6GJQsqaUBKTNV-1" vertex="1">
          <mxGeometry x="136" y="603" width="100" height="40" as="geometry" />
        </mxCell>
        <mxCell id="h-CkW-_AxQ22GPOhN1ok-44" value="Return 400&lt;div&gt;item already exists&lt;/div&gt;" style="rounded=1;whiteSpace=wrap;html=1;" parent="WIyWlLk6GJQsqaUBKTNV-1" vertex="1">
          <mxGeometry x="-80" y="520" width="120" height="60" as="geometry" />
        </mxCell>
        <mxCell id="h-CkW-_AxQ22GPOhN1ok-46" value="if item&amp;nbsp;&lt;span style=&quot;background-color: transparent; color: light-dark(rgb(0, 0, 0), rgb(255, 255, 255));&quot;&gt;exists&lt;/span&gt;" style="text;html=1;align=center;verticalAlign=middle;resizable=0;points=[];autosize=1;strokeColor=none;fillColor=none;" parent="WIyWlLk6GJQsqaUBKTNV-1" vertex="1">
          <mxGeometry x="42" y="518" width="90" height="30" as="geometry" />
        </mxCell>
        <mxCell id="-DJvV-PoS4uheA2PgcJM-1" value="return 200&lt;div&gt;success&lt;/div&gt;&lt;div&gt;&lt;br&gt;&lt;/div&gt;" style="whiteSpace=wrap;html=1;rounded=1;" vertex="1" parent="WIyWlLk6GJQsqaUBKTNV-1">
          <mxGeometry x="280" y="800" width="120" height="60" as="geometry" />
        </mxCell>
        <mxCell id="-DJvV-PoS4uheA2PgcJM-3" value="return 404&lt;div&gt;item not found&lt;/div&gt;" style="whiteSpace=wrap;html=1;rounded=1;" vertex="1" parent="WIyWlLk6GJQsqaUBKTNV-1">
          <mxGeometry x="485" y="520" width="120" height="60" as="geometry" />
        </mxCell>
        <mxCell id="-DJvV-PoS4uheA2PgcJM-5" value="if item not exist" style="text;html=1;align=center;verticalAlign=middle;resizable=0;points=[];autosize=1;strokeColor=none;fillColor=none;" vertex="1" parent="WIyWlLk6GJQsqaUBKTNV-1">
          <mxGeometry x="389" y="528" width="100" height="30" as="geometry" />
        </mxCell>
        <mxCell id="-DJvV-PoS4uheA2PgcJM-8" value="" style="edgeStyle=orthogonalEdgeStyle;rounded=0;orthogonalLoop=1;jettySize=auto;html=1;" edge="1" parent="WIyWlLk6GJQsqaUBKTNV-1" source="-DJvV-PoS4uheA2PgcJM-6" target="-DJvV-PoS4uheA2PgcJM-7">
          <mxGeometry relative="1" as="geometry" />
        </mxCell>
        <mxCell id="-DJvV-PoS4uheA2PgcJM-6" value="PUT/DELETE&lt;div&gt;update/delete&lt;/div&gt;" style="rounded=1;whiteSpace=wrap;html=1;" vertex="1" parent="WIyWlLk6GJQsqaUBKTNV-1">
          <mxGeometry x="779" y="525" width="120" height="60" as="geometry" />
        </mxCell>
        <mxCell id="-DJvV-PoS4uheA2PgcJM-10" value="" style="edgeStyle=orthogonalEdgeStyle;rounded=0;orthogonalLoop=1;jettySize=auto;html=1;" edge="1" parent="WIyWlLk6GJQsqaUBKTNV-1" source="-DJvV-PoS4uheA2PgcJM-7" target="-DJvV-PoS4uheA2PgcJM-9">
          <mxGeometry relative="1" as="geometry" />
        </mxCell>
        <mxCell id="-DJvV-PoS4uheA2PgcJM-13" value="" style="edgeStyle=orthogonalEdgeStyle;rounded=0;orthogonalLoop=1;jettySize=auto;html=1;" edge="1" parent="WIyWlLk6GJQsqaUBKTNV-1" source="-DJvV-PoS4uheA2PgcJM-7" target="-DJvV-PoS4uheA2PgcJM-12">
          <mxGeometry relative="1" as="geometry" />
        </mxCell>
        <mxCell id="-DJvV-PoS4uheA2PgcJM-7" value="if item exists" style="rhombus;whiteSpace=wrap;html=1;rounded=1;" vertex="1" parent="WIyWlLk6GJQsqaUBKTNV-1">
          <mxGeometry x="798" y="655" width="80" height="80" as="geometry" />
        </mxCell>
        <mxCell id="-DJvV-PoS4uheA2PgcJM-16" value="" style="edgeStyle=orthogonalEdgeStyle;rounded=0;orthogonalLoop=1;jettySize=auto;html=1;" edge="1" parent="WIyWlLk6GJQsqaUBKTNV-1" source="-DJvV-PoS4uheA2PgcJM-9" target="-DJvV-PoS4uheA2PgcJM-15">
          <mxGeometry relative="1" as="geometry" />
        </mxCell>
        <mxCell id="-DJvV-PoS4uheA2PgcJM-9" value="check if user&amp;nbsp;&lt;div&gt;is owner of&amp;nbsp;&lt;/div&gt;&lt;div&gt;item&lt;/div&gt;" style="rhombus;whiteSpace=wrap;html=1;rounded=1;" vertex="1" parent="WIyWlLk6GJQsqaUBKTNV-1">
          <mxGeometry x="598" y="650" width="130" height="90" as="geometry" />
        </mxCell>
        <mxCell id="-DJvV-PoS4uheA2PgcJM-11" value="yes" style="text;html=1;align=center;verticalAlign=middle;resizable=0;points=[];autosize=1;strokeColor=none;fillColor=none;" vertex="1" parent="WIyWlLk6GJQsqaUBKTNV-1">
          <mxGeometry x="748" y="658" width="40" height="30" as="geometry" />
        </mxCell>
        <mxCell id="-DJvV-PoS4uheA2PgcJM-12" value="return 404&lt;div&gt;item not found&lt;/div&gt;" style="whiteSpace=wrap;html=1;rounded=1;" vertex="1" parent="WIyWlLk6GJQsqaUBKTNV-1">
          <mxGeometry x="938" y="665" width="120" height="60" as="geometry" />
        </mxCell>
        <mxCell id="-DJvV-PoS4uheA2PgcJM-14" value="no" style="text;html=1;align=center;verticalAlign=middle;resizable=0;points=[];autosize=1;strokeColor=none;fillColor=none;" vertex="1" parent="WIyWlLk6GJQsqaUBKTNV-1">
          <mxGeometry x="868" y="658" width="40" height="30" as="geometry" />
        </mxCell>
        <mxCell id="-DJvV-PoS4uheA2PgcJM-19" value="" style="edgeStyle=orthogonalEdgeStyle;rounded=0;orthogonalLoop=1;jettySize=auto;html=1;" edge="1" parent="WIyWlLk6GJQsqaUBKTNV-1" source="-DJvV-PoS4uheA2PgcJM-15" target="-DJvV-PoS4uheA2PgcJM-18">
          <mxGeometry relative="1" as="geometry" />
        </mxCell>
        <mxCell id="-DJvV-PoS4uheA2PgcJM-15" value="update /delete&amp;nbsp;&lt;div&gt;item&lt;/div&gt;" style="whiteSpace=wrap;html=1;rounded=1;" vertex="1" parent="WIyWlLk6GJQsqaUBKTNV-1">
          <mxGeometry x="603" y="835" width="120" height="60" as="geometry" />
        </mxCell>
        <mxCell id="-DJvV-PoS4uheA2PgcJM-17" value="yes" style="text;html=1;align=center;verticalAlign=middle;resizable=0;points=[];autosize=1;strokeColor=none;fillColor=none;" vertex="1" parent="WIyWlLk6GJQsqaUBKTNV-1">
          <mxGeometry x="658" y="758" width="40" height="30" as="geometry" />
        </mxCell>
        <mxCell id="-DJvV-PoS4uheA2PgcJM-18" value="return 200&lt;div&gt;success&lt;/div&gt;" style="whiteSpace=wrap;html=1;rounded=1;" vertex="1" parent="WIyWlLk6GJQsqaUBKTNV-1">
          <mxGeometry x="603" y="975" width="120" height="60" as="geometry" />
        </mxCell>
        <mxCell id="-DJvV-PoS4uheA2PgcJM-20" value="" style="endArrow=classic;html=1;rounded=0;exitX=0;exitY=0.5;exitDx=0;exitDy=0;" edge="1" parent="WIyWlLk6GJQsqaUBKTNV-1">
          <mxGeometry width="50" height="50" relative="1" as="geometry">
            <mxPoint x="601" y="693" as="sourcePoint" />
            <mxPoint x="523" y="750" as="targetPoint" />
            <Array as="points">
              <mxPoint x="523" y="693" />
            </Array>
          </mxGeometry>
        </mxCell>
        <mxCell id="-DJvV-PoS4uheA2PgcJM-21" value="no" style="text;html=1;align=center;verticalAlign=middle;resizable=0;points=[];autosize=1;strokeColor=none;fillColor=none;" vertex="1" parent="WIyWlLk6GJQsqaUBKTNV-1">
          <mxGeometry x="550" y="658" width="40" height="30" as="geometry" />
        </mxCell>
        <mxCell id="-DJvV-PoS4uheA2PgcJM-22" value="return 401&amp;nbsp;&lt;div&gt;not authorized&lt;/div&gt;" style="rounded=1;whiteSpace=wrap;html=1;" vertex="1" parent="WIyWlLk6GJQsqaUBKTNV-1">
          <mxGeometry x="463" y="750" width="120" height="60" as="geometry" />
        </mxCell>
      </root>
    </mxGraphModel>
  </diagram>
</mxfile>
